<?xml version="1.0" encoding="UTF-8"?>
<svg id="Warstwa_2" data-name="Warstwa 2" xmlns="http://www.w3.org/2000/svg" viewBox="0 0 323.82 207.99">
  <defs>
    <style>
      .cls-1 {
        fill: #70c5d9;
      }

      .cls-2 {
        fill: #8773b0;
      }

      .cls-3 {
        fill: #39b4b1;
      }

      .cls-4 {
        fill: #fff;
      }

      .cls-5 {
        fill: #c3d34d;
      }
    </style>
  </defs>
  <g id="Warstwa_1-2" data-name="Warstwa 1">
    <g>
      <g>
        <path class="cls-4" d="M63.97,98.2c4.96,2.22,10.37,3.34,16.05,3.34,5.39,0,10.27-.97,14.5-2.9,4.21-1.91,7.56-4.65,9.95-8.14,2.38-3.48,3.59-7.57,3.59-12.15,0-5.91-1.9-10.69-5.65-14.2-3.79-3.55-10.18-6.43-18.97-8.56-5.39-1.29-8.89-2.42-10.72-3.43-1.93-1.07-2.91-2.45-2.91-4.11,0-1.76.83-3.1,2.47-3.97h0c1.54-.82,3.4-1.24,5.53-1.24,3.88,0,7.41.71,10.5,2.11,2.92,1.32,5.48,2.93,7.6,4.79l12.53-10.72c-3.04-3.5-6.89-6.52-11.45-8.99-4.71-2.55-10.52-3.84-17.27-3.84-5.68,0-10.65,1.07-14.78,3.18-4.12,2.11-7.32,4.94-9.51,8.43-2.19,3.48-3.31,7.38-3.31,11.58,0,5.81,1.81,10.52,5.37,13.98,3.59,3.5,9.18,6.21,16.61,8.04,4.12,1.08,7.3,2.02,9.47,2.81,2.25.82,3.75,1.63,4.6,2.47.88.88,1.32,1.99,1.32,3.3,0,1.54-.74,2.84-2.2,3.87-1.4.99-3.26,1.49-5.51,1.49-3.69,0-7.13-.76-10.22-2.26-2.98-1.44-6.12-3.83-9.35-7.1l-11.54,11.12c3.98,5.22,8.45,8.95,13.29,11.11Z"/>
        <path class="cls-4" d="M241.57,19.77V1.22c-1.12-.26-2.55-.52-4.28-.78-1.93-.29-4.19-.44-6.69-.44-4.79,0-9.04.99-12.63,2.96-3.58,1.95-6.38,4.83-8.33,8.55-1.96,3.73-2.96,8.31-2.96,13.59v7.42h-9.71v18.71h9.71v50.02h20.62v-50.02h12.65v-18.71h-12.65v-4.03c0-3.25.71-5.67,2.12-7.18,1.42-1.52,3.45-2.29,6.03-2.29,1.49,0,2.78.1,3.84.3.8.15,1.56.31,2.28.46Z"/>
        <path class="cls-4" d="M317.78,67.28c.1-1.18.15-2.4.15-3.64,0-6.95-1.47-13.28-4.36-18.82-2.89-5.53-7.03-9.99-12.32-13.27-5.29-3.27-11.64-4.93-18.86-4.93s-13.31,1.59-18.65,4.71c-5.34,3.12-9.53,7.54-12.46,13.11-2.94,5.59-4.43,12.14-4.43,19.48s1.49,13.99,4.43,19.48c2.93,5.48,7.12,9.77,12.46,12.74h0c5.34,2.98,11.62,4.5,18.66,4.5,7.72,0,14.47-1.59,20.06-4.72,5.43-3.04,9.74-7.36,12.81-12.83l-13.73-7.63c-1.85,2.62-4.1,4.87-6.71,6.67-2.77,1.91-6.55,2.88-11.24,2.88-5.6,0-10.05-1.56-13.22-4.63-2.62-2.54-4.18-5.98-4.63-10.24l-.06-.55h51.9c.08-.62.16-1.4.23-2.34ZM265.92,55.31l.14-.61c.68-3.05,2.07-5.65,4.13-7.74,3.08-3.13,7.23-4.71,12.35-4.71,5.72,0,10.04,1.8,12.83,5.34,1.57,2,2.71,4.39,3.39,7.1l.16.62h-32.98Z"/>
        <path class="cls-4" d="M72.04,202.08c4.44,3.82,10.64,5.76,18.43,5.76,2.42,0,4.6-.15,6.47-.43,1.73-.27,3.39-.62,4.94-1.06v-19.1c-.78.23-1.7.43-2.72.62-1.34.25-2.78.38-4.28.38-2.67,0-4.86-.76-6.52-2.26-1.67-1.51-2.52-4.04-2.52-7.5v-24.04h16.04v-18.71h-16.04v-17.36h-16.47l-4.41,17.36h-10.77v18.71h11.18v28.74c0,8.73,2.24,15.09,6.67,18.89Z"/>
        <path class="cls-4" d="M124.11,90.01c2.1,3.53,5.12,6.31,8.99,8.27,3.89,1.96,8.44,2.96,13.53,2.96,7.01,0,12.75-1.65,17.06-4.9.67-.51,1.35-1.09,2.12-1.83l.59-.57,1.65,5.39h16.63v-44.66c0-5.58-1.09-10.55-3.25-14.78-2.15-4.2-5.47-7.5-9.86-9.79-4.42-2.31-9.98-3.47-16.54-3.47-5.13,0-10.21.64-15.1,1.9-4.73,1.22-9.23,2.87-13.38,4.91l5.94,14.38c3.49-1.65,6.93-2.8,10.24-3.42,3.45-.64,6.55-.96,9.21-.96,4.24,0,7.38,1.04,9.33,3.1,1.95,2.05,2.93,4.49,2.93,7.26v5.08l-.79-.55c-4.26-2.97-9.86-4.47-16.63-4.47-4.8,0-9.21.97-13.09,2.89-3.87,1.92-7,4.65-9.29,8.14-2.29,3.48-3.45,7.77-3.45,12.74,0,4.69,1.07,8.87,3.17,12.4ZM145.28,70.76c1.95-1.64,4.63-2.47,7.97-2.47s6.04.83,8.04,2.47c2.03,1.66,3.05,3.97,3.05,6.86,0,2.69-1.02,4.94-3.04,6.7-1.99,1.74-4.7,2.62-8.05,2.62s-6.04-.88-7.98-2.63c-1.96-1.76-2.96-4.01-2.96-6.7,0-2.89,1-5.19,2.97-6.85Z"/>
        <path class="cls-4" d="M216.55,205.25c2.96,1.43,6.25,2.16,9.79,2.16,1.25,0,2.7-.07,4.29-.22,1.38-.12,2.53-.27,3.45-.43v-18.95c-1.94-.08-3.58-.63-4.88-1.64-1.47-1.14-2.18-3.56-2.18-7.38v-71.29h-20.33v78.94c0,5.08.92,9.18,2.72,12.17,1.8,2.99,4.21,5.23,7.15,6.65Z"/>
        <polygon class="cls-4" points="323.82 206.67 293.49 169.12 323.02 135.73 300.23 135.73 276.55 162.25 276.55 107.49 256.22 107.49 256.22 206.67 276.55 206.67 276.55 177.57 300.09 206.67 323.82 206.67"/>
      </g>
      <g>
        <path class="cls-5" d="M30.15,34.64h-8.13c-3.99,0-7.24,3.34-7.24,7.46s3.25,7.46,7.24,7.46h8.13c3.99,0,7.24-3.34,7.24-7.46s-3.25-7.46-7.24-7.46Z"/>
        <path class="cls-1" d="M30.15,56.48H7.24c-3.99,0-7.24,3.34-7.24,7.46s3.25,7.45,7.24,7.45h22.91c3.99,0,7.24-3.34,7.24-7.45s-3.25-7.46-7.24-7.46Z"/>
        <path class="cls-2" d="M30.22,78.32c-3.96.04-7.16,3.37-7.16,7.45s3.21,7.41,7.16,7.45c3.96-.04,7.16-3.37,7.16-7.45s-3.21-7.41-7.16-7.45Z"/>
      </g>
      <path class="cls-3" d="M146.84,135.27c-3.17,2.06-8.48,5.5-17.27,6.68-8.62,1.16-9.31,7.41-9.31,9.3l-.05,15.5c0,11.23,4.51,21.46,13.04,29.59,6.62,6.31,14,9.75,16.86,10.93,2.26.93,4.79.94,7.06.02,3.5-1.42,10.31-4.72,16.58-10.81,8.3-8.07,12.69-18.35,12.69-29.74v-15.47c0-2.35-.88-7.96-9.03-9.33-10.47-1.76-13.33-3.68-19.04-7.52l-.78-.53c-1.25-.84-2.68-1.26-4.15-1.26-1.09,0-2.21.23-3.31.7-1.07.46-2.05,1.1-3.29,1.9ZM133.94,151.29h0s-1,0-1,0h1ZM153.22,146.58l.27.18c4.84,3.19,9.37,5.78,19.86,7.75l.41.08v12.18c0,16.94-13.9,25.08-19.87,27.8l-.21.09-.21-.09c-6.19-2.83-20.57-11.21-20.57-27.78l.04-12.13.41-.07c9-1.56,14.96-4.83,19.6-7.83l.27-.18Z"/>
    </g>
  </g>
</svg>