<?xml version="1.0" encoding="UTF-8"?>
<svg id="Warstwa_2" data-name="Warstwa 2" xmlns="http://www.w3.org/2000/svg" viewBox="0 0 265.46 193.82">
  <defs>
    <style>
      .cls-1 {
        fill: #c5d54e;
      }

      .cls-2 {
        fill: #71c6da;
      }

      .cls-3 {
        fill: #3ab5b2;
      }

      .cls-4 {
        fill: #8974b2;
      }
    </style>
  </defs>
  <g id="Warstwa_1-2" data-name="Warstwa 1">
    <g>
      <path class="cls-3" d="M163.46,6.73c-8.12,5.27-21.71,14.09-44.23,17.11-22.33,3-24.1,19.21-24.11,24.11l-.12,39.8c0,28.9,11.6,55.22,33.54,76.13,17.03,16.22,35.99,25.05,43.35,28.1,2.96,1.22,6.06,1.84,9.22,1.84s6.15-.6,9.06-1.78c9.01-3.66,26.52-12.13,42.64-27.79,21.36-20.75,32.64-47.2,32.64-76.5v-39.7c0-6.09-2.28-20.63-23.37-24.17-26.81-4.5-34.15-9.43-48.77-19.26l-2.01-1.35C188.11,1.13,184.38,0,180.53,0c-2.88,0-5.77.62-8.58,1.83-2.76,1.19-5.29,2.83-8.49,4.91ZM128.14,48.05h2.1l-2.1.02v-.02ZM179.94,36.23l.57.38c12.45,8.19,24.11,14.86,51.07,19.92l.86.16v31.07c0,43.35-35.58,64.2-50.87,71.15l-.44.2-.44-.2c-15.84-7.25-52.67-28.68-52.67-71.09l.09-30.05v-.88s.87-.15.87-.15c23.14-4.02,38.45-12.43,50.39-20.12l.58-.37Z"/>
      <g>
        <path class="cls-1" d="M67.53,42.11h-18.2c-8.97,0-16.27,7.51-16.27,16.75s7.3,16.75,16.27,16.75h18.2c8.97,0,16.27-7.51,16.27-16.75s-7.3-16.75-16.27-16.75Z"/>
        <path class="cls-2" d="M67.53,90.99H16.27c-8.97,0-16.27,7.51-16.27,16.75s7.3,16.75,16.27,16.75h51.26c8.97,0,16.27-7.51,16.27-16.75s-7.3-16.75-16.27-16.75Z"/>
        <path class="cls-4" d="M67.7,139.86c-8.87.1-16.09,7.61-16.09,16.75s7.22,16.66,16.1,16.75c8.86-.09,16.08-7.6,16.08-16.75s-7.22-16.65-16.09-16.75Z"/>
      </g>
    </g>
  </g>
</svg>