<?xml version="1.0" encoding="UTF-8"?>
<svg id="Warstwa_2" data-name="Warstwa 2" xmlns="http://www.w3.org/2000/svg" viewBox="0 0 604.51 102.54">
  <defs>
    <style>
      .cls-1 {
        fill: #70c5d9;
      }

      .cls-2 {
        fill: #8773b0;
      }

      .cls-3 {
        fill: #39b4b1;
      }

      .cls-4 {
        fill: #c3d34d;
      }

      .cls-5 {
        fill: #093347;
      }
    </style>
  </defs>
  <g id="Warstwa_1-2" data-name="Warstwa 1">
    <g>
      <path class="cls-5" d="M80.53,102.54c-5.79,0-11.21-1.13-16.26-3.38-5.05-2.26-9.63-6.13-13.75-11.62l12.21-11.77c3.33,3.43,6.52,5.88,9.56,7.36,3.04,1.47,6.37,2.21,10,2.21,2.16,0,3.9-.47,5.22-1.4,1.32-.93,1.99-2.08,1.99-3.46,0-1.18-.39-2.16-1.18-2.94-.79-.78-2.26-1.57-4.41-2.35-2.16-.78-5.3-1.72-9.42-2.79-7.55-1.86-13.17-4.58-16.84-8.17-3.68-3.58-5.52-8.36-5.52-14.34,0-4.31,1.13-8.26,3.38-11.84,2.25-3.58,5.49-6.45,9.71-8.61,4.22-2.16,9.22-3.24,15-3.24,6.86,0,12.7,1.3,17.51,3.9,4.8,2.6,8.78,5.76,11.92,9.49l-13.24,11.33c-2.16-1.96-4.76-3.63-7.8-5-3.04-1.37-6.47-2.06-10.3-2.06-2.06,0-3.83.39-5.3,1.18-1.47.79-2.21,1.96-2.21,3.53,0,1.47.88,2.7,2.65,3.68,1.76.98,5.29,2.11,10.59,3.38,8.92,2.16,15.32,5.05,19.2,8.68,3.87,3.63,5.81,8.48,5.81,14.56,0,4.71-1.23,8.85-3.68,12.43-2.45,3.58-5.84,6.35-10.15,8.31-4.32,1.96-9.22,2.94-14.71,2.94Z"/>
      <path class="cls-5" d="M240.96,52.22h-43.99v-19.71h43.99v19.71ZM206.68,102.24V25.6c0-5.39,1.01-10,3.02-13.83,2.01-3.83,4.86-6.74,8.53-8.75,3.68-2.01,7.97-3.02,12.87-3.02,2.55,0,4.8.15,6.77.44,1.96.29,3.53.59,4.71.88v19.57c-.88-.2-1.84-.39-2.87-.59-1.03-.2-2.28-.29-3.75-.29-2.45,0-4.34.71-5.66,2.13-1.33,1.42-1.99,3.7-1.99,6.84v73.26h-21.63Z"/>
      <path class="cls-5" d="M282.88,101.65c-7.16,0-13.46-1.52-18.9-4.56-5.44-3.04-9.66-7.35-12.65-12.95-2.99-5.59-4.49-12.16-4.49-19.71s1.49-14.02,4.49-19.71c2.99-5.69,7.21-10.12,12.65-13.31,5.44-3.19,11.74-4.78,18.9-4.78s13.73,1.67,19.13,5c5.39,3.34,9.56,7.82,12.5,13.46,2.94,5.64,4.41,11.99,4.41,19.05,0,1.28-.05,2.5-.15,3.68-.1,1.18-.2,2.11-.29,2.79h-54.87v-15.3h38.4l-2.5,6.33c0-5.39-1.35-9.81-4.04-13.24-2.7-3.43-6.84-5.15-12.43-5.15-5,0-9,1.52-11.99,4.56-2.99,3.04-4.49,7.06-4.49,12.06v8.09c0,5.39,1.54,9.59,4.63,12.58,3.09,2.99,7.38,4.49,12.87,4.49,4.61,0,8.26-.93,10.96-2.79,2.7-1.86,4.98-4.17,6.84-6.91l14.56,8.09c-3.14,5.79-7.55,10.28-13.24,13.46-5.69,3.19-12.46,4.78-20.3,4.78Z"/>
      <path class="cls-5" d="M359.58,48.11v-19.71h48.69v19.71h-48.69ZM396.35,101.51c-7.94,0-14.2-1.96-18.76-5.88-4.56-3.92-6.84-10.35-6.84-19.27V29.28l-.29-.88,4.41-17.36h17.36v60.61c0,3.34.78,5.71,2.35,7.13,1.57,1.42,3.63,2.13,6.18,2.13,1.47,0,2.87-.12,4.19-.37,1.32-.24,2.43-.51,3.31-.81v20.15c-1.67.49-3.46.88-5.37,1.18-1.91.29-4.1.44-6.55.44Z"/>
      <path class="cls-5" d="M147.13,102.24c-5.2,0-9.78-1.01-13.75-3.01-3.97-2.01-7.04-4.83-9.19-8.46-2.16-3.63-3.24-7.84-3.24-12.65,0-5.1,1.18-9.44,3.53-13.02,2.35-3.58,5.52-6.35,9.49-8.31,3.97-1.96,8.41-2.94,13.31-2.94,7.16,0,12.95,1.62,17.36,4.85,4.41,3.24,7.35,7.89,8.83,13.97l-9.27-1.62v-16.77c0-2.65-.93-4.95-2.79-6.91-1.86-1.96-4.85-2.94-8.97-2.94-2.65,0-5.69.32-9.12.96-3.43.64-6.96,1.84-10.59,3.6l-6.33-15.3c4.31-2.16,8.95-3.87,13.9-5.15,4.95-1.27,10.03-1.91,15.23-1.91,6.67,0,12.26,1.18,16.77,3.53,4.51,2.35,7.87,5.69,10.08,10,2.21,4.32,3.31,9.32,3.31,15v45.16h-17.5l-4.27-13.98,9.56-2.94c-1.57,5.88-4.56,10.5-8.97,13.83-4.41,3.33-10.2,5-17.36,5ZM153.75,86.94c3.24,0,5.81-.83,7.72-2.5,1.91-1.67,2.87-3.77,2.87-6.33,0-2.74-.96-4.9-2.87-6.47-1.91-1.57-4.49-2.35-7.72-2.35s-5.79.79-7.65,2.35c-1.86,1.57-2.79,3.73-2.79,6.47,0,2.55.93,4.66,2.79,6.33,1.86,1.67,4.41,2.5,7.65,2.5Z"/>
      <path class="cls-5" d="M515.81,101.06c-3.63,0-6.96-.74-10-2.21-3.04-1.47-5.49-3.75-7.36-6.84-1.86-3.09-2.79-7.23-2.79-12.43V.15h21.33v71.79c0,3.63.66,5.96,1.99,6.99,1.32,1.03,3.02,1.54,5.08,1.54v19.86c-.98.2-2.28.37-3.9.51-1.62.15-3.07.22-4.34.22Z"/>
      <path class="cls-5" d="M535.37.15h21.33v100.18h-21.33V.15ZM550.23,64.14v-2.79l29.42-32.95h24.13l-32.66,36.92-.59-7.06,33.98,42.07h-25.01l-29.27-36.19Z"/>
      <g>
        <path class="cls-4" d="M14.77,42.59c0-4.39,3.46-7.96,7.74-7.96h8.13c4.27,0,7.74,3.56,7.74,7.96s-3.46,7.96-7.74,7.96h-8.13c-4.27,0-7.74-3.56-7.74-7.96Z"/>
        <path class="cls-1" d="M0,64.43c0-4.39,3.46-7.96,7.74-7.96h22.91c4.27,0,7.74,3.56,7.74,7.96s-3.46,7.96-7.74,7.96H7.74c-4.27,0-7.74-3.56-7.74-7.96Z"/>
        <path class="cls-2" d="M23.06,86.28c0-4.39,3.46-7.96,7.74-7.96h-.16c4.27,0,7.74,3.56,7.74,7.96s-3.46,7.96-7.74,7.96h.16c-4.27,0-7.74-3.56-7.74-7.96Z"/>
      </g>
      <path class="cls-3" d="M452.3,101.65c-1.27,0-2.54-.25-3.75-.75-2.89-1.19-10.33-4.66-17.01-11.03-8.63-8.22-13.19-18.58-13.19-29.96l.05-15.5c0-1.99.72-8.59,9.75-9.8,8.68-1.16,13.93-4.57,17.06-6.6,1.26-.82,2.26-1.47,3.37-1.94,2.72-1.17,5.61-.95,7.93.6l.78.53c5.65,3.79,8.48,5.7,18.84,7.44,8.53,1.43,9.45,7.34,9.45,9.82v15.47c0,11.53-4.44,21.93-12.84,30.1-6.33,6.15-13.21,9.48-16.74,10.91-1.19.48-2.44.72-3.69.72ZM432.07,48.24l-.04,11.71c0,16.26,14.13,24.51,20.28,27.32,5.98-2.72,19.58-10.73,19.58-27.34v-11.76c-10.31-1.93-14.96-4.48-20.04-7.82-3.69,2.38-9.99,6.2-19.78,7.9ZM432.08,44.45h0s0,0,0,0Z"/>
    </g>
  </g>
</svg>